HIERARCHY
ROOT Hips
{
	OFFSET 0.000000 100.481300 0.000000
	CHANNELS 6 Xposition Yposition Zposition Xrotation Yrotation Zrotation
	JOINT Spine
	{
		OFFSET -0.279200 12.230698 -2.892100
		CHANNELS 3 Xrotation Yrotation Zrotation
		JOINT Spine1
		{
			OFFSET -0.325700 14.269203 -3.374200
			CHANNELS 3 Xrotation Yrotation Zrotation
			JOINT Spine2
			{
				OFFSET -0.372300 16.307602 -0.352600
				CHANNELS 3 Xrotation Yrotation Zrotation
				JOINT Neck
				{
					OFFSET -0.418800 17.814194 8.416900
					CHANNELS 3 Xrotation Yrotation Zrotation
					JOINT Head
					{
						OFFSET 0.000000 7.031097 3.806800
						CHANNELS 3 Xrotation Yrotation Zrotation
						JOINT HeadTop_End
						{
							OFFSET 0.000000 24.646606 12.978600
							CHANNELS 3 Xrotation Yrotation Zrotation
							End Site
							{
								OFFSET 0.000000 27.854965 0.000000
							}
						}
					}
				}
				JOINT LeftShoulder
				{
					OFFSET 16.952999 14.495407 -7.737500
					CHANNELS 3 Xrotation Yrotation Zrotation
					JOINT LeftArm
					{
						OFFSET 9.308998 -2.777710 0.208600
						CHANNELS 3 Xrotation Yrotation Zrotation
						JOINT LeftForeArm
						{
							OFFSET 29.972298 0.000000 0.000000
							CHANNELS 3 Xrotation Yrotation Zrotation
							JOINT LeftHand
							{
								OFFSET 26.026505 0.000000 0.000000
								CHANNELS 3 Xrotation Yrotation Zrotation
								JOINT LeftHandThumb1
								{
									OFFSET 12.240501 -7.147949 9.207150
									CHANNELS 3 Xrotation Yrotation Zrotation
									JOINT LeftHandThumb2
									{
										OFFSET 4.138618 -2.389435 2.389433
										CHANNELS 3 Xrotation Yrotation Zrotation
										JOINT LeftHandThumb3
										{
											OFFSET 2.726913 -1.574387 1.574386
											CHANNELS 3 Xrotation Yrotation Zrotation
											JOINT LeftHandThumb4
											{
												OFFSET 3.941010 -2.275345 2.275342
												CHANNELS 3 Xrotation Yrotation Zrotation
												End Site
												{
													OFFSET -0.005798 5.087799 0.009903
												}
											}
										}
									}
								}
								JOINT LeftHandIndex1
								{
									OFFSET 24.424698 -1.985611 5.953459
									CHANNELS 3 Xrotation Yrotation Zrotation
									JOINT LeftHandIndex2
									{
										OFFSET 6.426697 0.000000 0.000000
										CHANNELS 3 Xrotation Yrotation Zrotation
										JOINT LeftHandIndex3
										{
											OFFSET 5.337898 0.000000 0.000000
											CHANNELS 3 Xrotation Yrotation Zrotation
											JOINT LeftHandIndex4
											{
												OFFSET 4.409401 0.000000 0.000000
												CHANNELS 3 Xrotation Yrotation Zrotation
												End Site
												{
													OFFSET 0.000000 4.409363 0.014373
												}
											}
										}
									}
								}
								JOINT LeftHandMiddle1
								{
									OFFSET 23.810104 0.000000 0.000000
									CHANNELS 3 Xrotation Yrotation Zrotation
									JOINT LeftHandMiddle2
									{
										OFFSET 7.176498 0.000000 0.000000
										CHANNELS 3 Xrotation Yrotation Zrotation
										JOINT LeftHandMiddle3
										{
											OFFSET 6.774902 0.000000 0.000000
											CHANNELS 3 Xrotation Yrotation Zrotation
											JOINT LeftHandMiddle4
											{
												OFFSET 5.403328 0.000000 0.000000
												CHANNELS 3 Xrotation Yrotation Zrotation
												End Site
												{
													OFFSET -0.027702 5.403244 0.017414
												}
											}
										}
									}
								}
								JOINT LeftHandRing1
								{
									OFFSET 22.908401 -0.839279 -6.020567
									CHANNELS 3 Xrotation Yrotation Zrotation
									JOINT LeftHandRing2
									{
										OFFSET 6.337502 0.000000 0.000000
										CHANNELS 3 Xrotation Yrotation Zrotation
										JOINT LeftHandRing3
										{
											OFFSET 5.779297 0.000000 0.000000
											CHANNELS 3 Xrotation Yrotation Zrotation
											JOINT LeftHandRing4
											{
												OFFSET 4.965698 0.000000 0.000000
												CHANNELS 3 Xrotation Yrotation Zrotation
												End Site
												{
													OFFSET 0.000000 4.965668 0.016186
												}
											}
										}
									}
								}
								JOINT LeftHandPinky1
								{
									OFFSET 20.037003 -1.530319 -10.950146
									CHANNELS 3 Xrotation Yrotation Zrotation
									JOINT LeftHandPinky2
									{
										OFFSET 5.254700 0.000000 0.000000
										CHANNELS 3 Xrotation Yrotation Zrotation
										JOINT LeftHandPinky3
										{
											OFFSET 4.810204 0.000000 0.000000
											CHANNELS 3 Xrotation Yrotation Zrotation
											JOINT LeftHandPinky4
											{
												OFFSET 3.647202 0.000000 0.000000
												CHANNELS 3 Xrotation Yrotation Zrotation
												End Site
												{
													OFFSET 0.000000 3.647186 0.011889
												}
											}
										}
									}
								}
							}
						}
					}
				}
				JOINT RightShoulder
				{
					OFFSET -15.141001 14.495407 -7.737500
					CHANNELS 3 Xrotation Yrotation Zrotation
					JOINT RightArm
					{
						OFFSET -9.308998 -2.777710 0.208500
						CHANNELS 3 Xrotation Yrotation Zrotation
						JOINT RightForeArm
						{
							OFFSET -29.972300 0.000000 0.000000
							CHANNELS 3 Xrotation Yrotation Zrotation
							JOINT RightHand
							{
								OFFSET -26.026505 0.000000 0.000000
								CHANNELS 3 Xrotation Yrotation Zrotation
								JOINT RightHandThumb1
								{
									OFFSET -12.240601 -7.148026 9.207092
									CHANNELS 3 Xrotation Yrotation Zrotation
									JOINT RightHandThumb2
									{
										OFFSET -4.138618 -2.389435 2.389433
										CHANNELS 3 Xrotation Yrotation Zrotation
										JOINT RightHandThumb3
										{
											OFFSET -2.726974 -1.574417 1.574421
											CHANNELS 3 Xrotation Yrotation Zrotation
											JOINT RightHandThumb4
											{
												OFFSET -3.941010 -2.275345 2.275343
												CHANNELS 3 Xrotation Yrotation Zrotation
												End Site
												{
													OFFSET 0.005814 5.087799 0.009927
												}
											}
										}
									}
								}
								JOINT RightHandIndex1
								{
									OFFSET -24.424698 -1.985657 5.953444
									CHANNELS 3 Xrotation Yrotation Zrotation
									JOINT RightHandIndex2
									{
										OFFSET -6.426697 0.000000 0.000000
										CHANNELS 3 Xrotation Yrotation Zrotation
										JOINT RightHandIndex3
										{
											OFFSET -5.337898 0.000000 0.000000
											CHANNELS 3 Xrotation Yrotation Zrotation
											JOINT RightHandIndex4
											{
												OFFSET -4.409401 0.000000 0.000000
												CHANNELS 3 Xrotation Yrotation Zrotation
												End Site
												{
													OFFSET 0.000000 4.409363 0.014408
												}
											}
										}
									}
								}
								JOINT RightHandMiddle1
								{
									OFFSET -23.810097 0.000000 0.000000
									CHANNELS 3 Xrotation Yrotation Zrotation
									JOINT RightHandMiddle2
									{
										OFFSET -7.176498 0.000000 0.000000
										CHANNELS 3 Xrotation Yrotation Zrotation
										JOINT RightHandMiddle3
										{
											OFFSET -6.774902 0.000000 0.000000
											CHANNELS 3 Xrotation Yrotation Zrotation
											JOINT RightHandMiddle4
											{
												OFFSET -5.403328 0.000000 0.000000
												CHANNELS 3 Xrotation Yrotation Zrotation
												End Site
												{
													OFFSET 0.027702 5.403244 0.017457
												}
											}
										}
									}
								}
								JOINT RightHandRing1
								{
									OFFSET -22.908302 -0.839325 -6.020576
									CHANNELS 3 Xrotation Yrotation Zrotation
									JOINT RightHandRing2
									{
										OFFSET -6.337502 0.000000 0.000000
										CHANNELS 3 Xrotation Yrotation Zrotation
										JOINT RightHandRing3
										{
											OFFSET -5.779297 0.000000 0.000000
											CHANNELS 3 Xrotation Yrotation Zrotation
											JOINT RightHandRing4
											{
												OFFSET -4.965698 0.000000 0.000000
												CHANNELS 3 Xrotation Yrotation Zrotation
												End Site
												{
													OFFSET 0.000000 4.965668 0.016226
												}
											}
										}
									}
								}
								JOINT RightHandPinky1
								{
									OFFSET -20.037003 -1.530334 -10.950259
									CHANNELS 3 Xrotation Yrotation Zrotation
									JOINT RightHandPinky2
									{
										OFFSET -5.254700 0.000000 0.000000
										CHANNELS 3 Xrotation Yrotation Zrotation
										JOINT RightHandPinky3
										{
											OFFSET -4.810204 0.000000 0.000000
											CHANNELS 3 Xrotation Yrotation Zrotation
											JOINT RightHandPinky4
											{
												OFFSET -3.647202 0.000000 0.000000
												CHANNELS 3 Xrotation Yrotation Zrotation
												End Site
												{
													OFFSET 0.000000 3.647186 0.011917
												}
											}
										}
									}
								}
							}
						}
					}
				}
			}
		}
	}
	JOINT LeftUpLeg
	{
		OFFSET 15.427100 -6.655098 0.678600
		CHANNELS 3 Xrotation Yrotation Zrotation
		JOINT LeftLeg
		{
			OFFSET 4.081073 -39.591068 13.024000
			CHANNELS 3 Xrotation Yrotation Zrotation
			JOINT LeftFoot
			{
				OFFSET -4.081074 -37.707932 -15.979700
				CHANNELS 3 Xrotation Yrotation Zrotation
				JOINT LeftToeBase
				{
					OFFSET 5.346399 -15.068900 20.645000
					CHANNELS 3 Xrotation Yrotation Zrotation
					JOINT LeftToe_End
					{
						OFFSET 2.754700 0.931300 11.300900
						CHANNELS 3 Xrotation Yrotation Zrotation
						End Site
						{
							OFFSET 0.000000 11.669021 0.000000
						}
					}
				}
			}
		}
	}
	JOINT RightUpLeg
	{
		OFFSET -15.569500 -6.655098 0.678600
		CHANNELS 3 Xrotation Yrotation Zrotation
		JOINT RightLeg
		{
			OFFSET -4.081825 -39.591045 13.023800
			CHANNELS 3 Xrotation Yrotation Zrotation
			JOINT RightFoot
			{
				OFFSET 4.081824 -37.707954 -15.979600
				CHANNELS 3 Xrotation Yrotation Zrotation
				JOINT RightToeBase
				{
					OFFSET -5.346400 -15.068900 20.645000
					CHANNELS 3 Xrotation Yrotation Zrotation
					JOINT RightToe_End
					{
						OFFSET -2.754700 0.931300 11.300900
						CHANNELS 3 Xrotation Yrotation Zrotation
						End Site
						{
							OFFSET 0.000000 11.669021 0.000000
						}
					}
				}
			}
		}
	}
}
MOTION
Frames: 4
Frame Time: 0.033333
1.072166 97.620438 -0.671017 -3.745739 -5.192740 -3.898591 3.296487 1.513910 2.886442 1.151778 0.328214 1.555770 1.127069 0.355156 1.553308 5.625378 -0.078608 0.454684 -7.563307 1.376866 -0.087014 0.000000 0.000000 0.000000 1.049638 -17.442104 -12.319426 3.916262 -19.989267 -69.765232 0.000006 -1.459361 0.000005 -33.232914 -1.359935 -6.193423 -0.672406 2.145375 4.843802 11.850117 25.421327 17.061049 -13.813928 3.537282 9.035991 0.000000 0.000003 0.000003 0.017702 -0.965132 -7.592946 0.267871 1.752891 -17.375737 0.057682 0.820954 -8.037996 -0.000001 -0.000000 -0.000000 -0.076310 2.665778 -15.696854 0.268436 1.754694 -17.394120 0.300162 1.852880 -18.402056 0.000000 -0.000000 0.000002 0.133532 3.633057 -21.134267 0.386708 2.095008 -20.914196 0.283053 1.800667 -17.865360 0.000000 0.000000 -0.000002 0.922707 5.558484 -27.127599 0.268793 1.755840 -17.405882 0.241908 1.667701 -16.505883 0.000000 0.000000 0.000001 1.207703 15.345215 14.705973 13.158861 27.555121 58.785143 0.000008 6.693736 0.000001 -20.179097 -0.514098 6.782783 -1.664072 -0.174410 -4.218986 12.703771 -29.825230 -16.146393 -15.550039 -3.557902 -12.711032 -0.000001 0.000000 0.000001 0.037888 1.262218 6.823700 0.213722 -1.396027 17.407056 0.046027 -0.653849 8.053207 0.000001 -0.000001 -0.000001 -0.136224 -2.205109 14.998891 0.214451 -1.398345 17.436908 0.239772 -1.476528 18.446278 0.000003 -0.000001 -0.000001 0.030609 -3.075755 20.451036 0.308444 -1.668283 20.948508 0.225817 -1.434045 17.897082 -0.000001 0.000000 0.000001 0.740127 -4.889591 26.473128 0.214458 -1.398380 17.437249 0.193012 -1.328193 16.535815 0.000001 -0.000002 0.000001 -10.206925 14.651318 11.522086 12.131317 1.647997 4.067407 0.800243 0.799595 -8.235635 -4.933345 0.000000 0.000001 -0.000000 0.000000 -0.000000 3.685675 -10.068606 1.720115 6.594199 -8.483463 -2.382284 -5.346523 -3.058127 4.998767 -7.282880 -0.000002 0.000001 0.000001 -0.000000 0.000000 
1.072668 97.615662 -0.683874 -3.745664 -5.176129 -3.894550 3.296562 1.514134 2.883501 1.151778 0.328214 1.555770 1.127068 0.355156 1.553307 5.625377 -0.078607 0.454683 -7.546051 1.377005 -0.086952 0.000000 -0.000000 0.000000 1.057953 -17.425455 -12.303062 3.929721 -20.011030 -69.786017 0.000001 -1.463963 -0.000010 -33.230619 -1.348095 -6.185677 -0.672410 2.145375 4.843813 11.854422 25.393530 17.055616 -13.813245 3.540179 9.036730 0.000001 -0.000000 -0.000001 0.017658 -0.965063 -7.593692 0.267869 1.752893 -17.375728 0.057679 0.820953 -8.038007 -0.000000 0.000000 0.000002 -0.088895 2.621062 -15.700988 0.268433 1.754691 -17.394144 0.300161 1.852879 -18.402061 -0.000000 -0.000001 0.000004 0.133354 3.632264 -21.126443 0.386707 2.095010 -20.914191 0.283053 1.800665 -17.865357 -0.000000 -0.000000 0.000000 0.920524 5.555089 -27.088672 0.269315 1.757496 -17.422805 0.242401 1.669359 -16.522818 0.000001 -0.000000 0.000000 1.202974 15.345579 14.723841 13.215204 27.713436 58.791584 0.000002 6.765548 0.000017 -20.285512 -0.476029 6.839343 -1.659952 -0.182645 -4.237905 12.702378 -29.812492 -16.144629 -15.533913 -3.595388 -12.721865 -0.000002 0.000000 0.000001 0.042894 1.290308 6.679785 0.213727 -1.396032 17.407031 0.046024 -0.653851 8.053212 -0.000001 -0.000001 -0.000001 -0.131062 -2.195279 14.672211 0.214476 -1.398422 17.437772 0.239792 -1.476583 18.447115 -0.000001 0.000003 0.000001 0.019157 -3.036805 20.272947 0.308414 -1.668193 20.947466 0.225795 -1.433957 17.895932 -0.000000 0.000001 -0.000001 0.723666 -4.864460 26.110276 0.214283 -1.397832 17.430171 0.192848 -1.327625 16.528687 0.000001 -0.000001 0.000002 -10.232534 14.650698 11.517053 12.143510 1.630408 4.067823 0.798783 0.798530 -8.213113 -4.933342 0.000001 -0.000003 0.000000 0.000000 -0.000000 3.658476 -10.067118 1.716775 6.621065 -8.512814 -2.398025 -5.346159 -3.054982 5.013162 -7.282875 -0.000001 0.000001 0.000000 0.000001 0.000000 
1.073257 97.598160 -0.696821 -3.735975 -5.167182 -3.886084 3.296750 1.514515 2.876515 1.151778 0.328214 1.555770 1.127068 0.355156 1.553307 5.625376 -0.078607 0.459039 -7.523143 1.376160 -0.082462 -0.000000 0.000000 -0.000000 1.065006 -17.421863 -12.281752 3.935336 -20.014563 -69.823733 -0.000008 -1.477733 0.000020 -33.229126 -1.340468 -6.180705 -0.672483 2.147611 4.824443 11.850570 25.418428 17.060474 -13.811134 3.548849 9.038883 0.000001 0.000000 0.000000 0.015621 -0.961431 -7.628788 0.267871 1.752891 -17.375699 0.057681 0.820957 -8.037977 -0.000001 -0.000000 0.000001 -0.079750 2.653397 -15.696091 0.268453 1.754753 -17.394694 0.300179 1.852938 -18.402611 -0.000001 0.000000 0.000001 0.135467 3.641848 -21.221210 0.386706 2.095009 -20.914179 0.283051 1.800666 -17.865357 -0.000001 0.000001 0.000001 0.921715 5.556944 -27.109933 0.268228 1.754027 -17.387302 0.241366 1.665877 -16.487308 0.000001 -0.000000 0.000000 1.195575 15.356313 14.741840 13.309558 27.925066 58.782158 -0.000005 6.886456 -0.000012 -20.406811 -0.470817 6.885296 -1.641315 -0.189413 -4.418498 12.668821 -29.742035 -16.139498 -15.488233 -3.695554 -12.755067 -0.000001 -0.000001 -0.000004 0.046058 1.440280 6.162500 0.213717 -1.396027 17.407050 0.046029 -0.653849 8.053221 -0.000001 -0.000002 -0.000004 -0.139776 -2.086513 13.885835 0.213859 -1.396474 17.412766 0.239159 -1.474683 18.422328 -0.000002 -0.000001 -0.000005 0.017289 -3.006369 19.727825 0.307084 -1.664731 20.901805 0.224657 -1.430427 17.850436 -0.000000 -0.000000 0.000002 0.683471 -4.803281 25.133307 0.214787 -1.399412 17.450454 0.193312 -1.329208 16.548944 -0.000000 0.000001 0.000001 -10.276534 14.648961 11.512245 12.191946 1.624130 4.067399 0.770244 0.799653 -8.196738 -4.933341 -0.000000 -0.000001 0.000000 0.000001 0.000000 3.603302 -10.063561 1.710811 6.695925 -8.549291 -2.419696 -5.376550 -3.050297 5.034150 -7.282876 -0.000007 -0.000001 -0.000000 -0.000000 0.000000 
1.073193 97.559998 -0.710409 -3.723877 -5.166438 -3.869956 3.297143 1.515101 2.861566 1.151778 0.328214 1.555770 1.127068 0.355156 1.553307 5.625378 -0.078607 0.469138 -7.515068 1.386098 -0.071751 0.000000 -0.000000 0.000000 1.068952 -17.430530 -12.262309 3.937535 -20.014659 -69.861142 0.000005 -1.497211 -0.000006 -33.228935 -1.339071 -6.180498 -0.672422 2.145787 4.840278 11.852030 25.408988 17.058626 -13.814842 3.533511 9.035036 -0.000001 -0.000002 -0.000003 0.016780 -0.982090 -7.575964 0.267873 1.752893 -17.375704 0.057679 0.820955 -8.038004 -0.000001 0.000000 0.000002 -0.081597 2.644605 -15.671177 0.268454 1.754759 -17.394824 0.300184 1.852947 -18.402679 -0.000000 -0.000000 -0.000002 0.132973 3.632590 -21.156607 0.386707 2.095009 -20.914190 0.283050 1.800666 -17.865360 0.000000 0.000000 -0.000002 0.921042 5.555897 -27.097886 0.268745 1.755685 -17.404266 0.241865 1.667542 -16.504276 0.000000 0.000001 0.000001 1.186495 15.368930 14.764444 13.489790 28.263260 58.678906 0.000005 7.113416 -0.000016 -20.465335 -0.534927 6.845699 -1.682114 -0.100466 -4.404211 12.656600 -29.719270 -16.141730 -15.476196 -3.721938 -12.763819 -0.000002 0.000002 -0.000001 0.057150 1.554893 5.784112 0.213718 -1.396034 17.407041 0.046024 -0.653844 8.053226 0.000001 0.000000 -0.000002 -0.134475 -2.034164 13.147393 0.213972 -1.396820 17.417049 0.239257 -1.474998 18.426583 0.000002 -0.000002 -0.000001 0.023771 -3.004879 19.298966 0.305398 -1.660320 20.843856 0.223219 -1.425977 17.792820 0.000000 -0.000003 0.000001 0.677676 -4.810810 24.336288 0.219884 -1.415528 17.658049 0.198158 -1.345409 16.756626 -0.000000 -0.000000 0.000002 -10.345624 14.640657 11.506252 12.296527 1.628285 4.065786 0.706234 0.803969 -8.183388 -4.936910 0.000006 -0.000001 0.000000 0.000000 0.000000 3.502540 -10.051613 1.687603 6.850582 -8.584612 -2.446690 -5.445341 -3.042683 5.068049 -7.282877 0.000016 0.000000 -0.000000 0.000000 0.000000 
